<svg xmlns="http://www.w3.org/2000/svg" width="256" height="256" viewBox="0 0 24 24" fill="none" stroke="#cfe0ff" stroke-width="1.4" stroke-linecap="round" stroke-linejoin="round">
  <!-- "sparkles" from Tabler Icons (MIT, https://tabler.io/icons), like Barry Launcher's other icons. Not Anthropic's logo. -->
  <path d="M16 18a2 2 0 0 1 2 2a2 2 0 0 1 2 -2a2 2 0 0 1 -2 -2a2 2 0 0 1 -2 2zm0 -12a2 2 0 0 1 2 2a2 2 0 0 1 2 -2a2 2 0 0 1 -2 -2a2 2 0 0 1 -2 2zm-7 12a6 6 0 0 1 6 -6a6 6 0 0 1 -6 -6a6 6 0 0 1 -6 6a6 6 0 0 1 6 6z"/>
</svg>
